<svg width="94" height="35" viewBox="0 0 94 35" fill="none" xmlns="http://www.w3.org/2000/svg">
<path fill-rule="evenodd" clip-rule="evenodd" d="M16.3292 12.9819C11.1006 9.4553 6.188 5.4842 1.64539 1.11208L1.6459 1.11155C1.16896 0.665178 0.284167 1.30609 0.704654 1.85767C5.23995 7.61519 10.761 12.5187 17.0154 16.3441C28.0148 23.2593 40.4572 27.5891 53.418 29.0118C59.9257 29.7511 66.5045 29.7413 73.0259 28.9826C76.5245 28.5421 79.9925 27.8896 83.4109 27.0297L83.4691 26.9892C84.8875 26.0038 86.3075 25.0233 87.7328 24.0505C88.6216 24.6668 89.7522 23.7617 89.4059 22.914C89.953 22.5442 90.5012 22.1757 91.0505 21.8086L92.1248 24.3481C89.2651 25.3939 86.3564 26.2888 83.4109 27.0297L79.9107 29.4677C80.1516 29.3998 80.4145 29.4612 80.5989 29.6393C80.8246 29.8572 80.8798 30.1985 80.735 30.4803C80.1873 31.4204 79.5634 32.2768 78.9321 33.1432C78.7195 33.435 78.5061 33.728 78.2944 34.0257L75.9796 32.3323C75.5609 32.7986 75.4717 33.4951 75.8005 34.055C76.1967 34.7294 77.0582 34.9647 77.7517 34.5877C79.0784 33.8216 80.3457 32.9556 81.5425 31.9973L85.1422 29.4593C87.5979 27.7319 90.0371 25.9801 92.4597 24.2039C93.0506 23.8344 93.2921 23.0942 93.0304 22.4545C92.7639 21.812 92.059 21.4733 91.3856 21.6642C90.6338 21.9609 89.8777 22.2449 89.1176 22.5163C87.6349 21.1307 86.01 19.9054 84.2701 18.8608C83.3593 18.3283 82.4132 17.8588 81.4384 17.4554C80.6599 17.0104 79.7692 16.8006 78.874 16.8512C78.6081 16.9268 78.3922 17.1213 78.2894 17.3779C78.1866 17.6344 78.2084 17.9241 78.3484 18.1624C78.9457 18.7879 79.6808 19.2654 80.4951 19.5568C81.2633 19.9479 82.0142 20.3745 82.7661 20.8015C82.8286 20.8371 82.8911 20.8726 82.9537 20.9081C84.2584 21.6438 85.5224 22.4489 86.7403 23.3198C81.4615 25.0043 76.0099 26.0871 70.4897 26.5441C57.7937 27.658 45.0391 25.9403 33.1468 21.515C27.2333 19.3111 21.5923 16.4489 16.3292 12.9819ZM78.3511 30.4933C78.7925 30.1885 79.2422 29.8956 79.6996 29.6148L79.9107 29.4677C79.8569 29.4829 79.8042 29.5045 79.7537 29.5327C79.2673 29.836 78.8043 30.1593 78.3511 30.4933ZM78.3511 30.4933C77.5265 31.0625 76.7305 31.673 75.9661 32.3224L75.9796 32.3323C76.0653 32.2368 76.1648 32.151 76.2774 32.078C76.5604 31.8637 76.839 31.6481 77.1166 31.4333C77.5269 31.1157 77.9348 30.8 78.3511 30.4933Z" fill="#8082A5"/>
</svg>
