<svg width="574" height="40" viewBox="0 0 574 40" fill="none" xmlns="http://www.w3.org/2000/svg">
<path d="M68.2646 5.64V16H67.0746V6.935C67.0373 6.98633 66.9206 7.054 66.7246 7.138C66.5333 7.222 66.2953 7.30367 66.0106 7.383C65.7306 7.45767 65.4319 7.51133 65.1146 7.544V6.466C65.4273 6.41467 65.7213 6.34233 65.9966 6.249C66.2766 6.15567 66.5146 6.05533 66.7106 5.948C66.9066 5.836 67.0373 5.73333 67.1026 5.64H68.2646ZM74.5801 16V13.676H70.4361V12.717L74.1181 5.64H75.7491V12.626H77.1421V13.676H75.7491V16H74.5801ZM71.4721 13.27L71.0801 12.626H74.5801V6.466L74.8811 6.536L71.4721 13.27Z" fill="white" fill-opacity="0.64"/>
<path d="M181.456 16.14C180.78 16.14 180.22 15.9487 179.776 15.566C179.333 15.1787 179.002 14.642 178.782 13.956C178.568 13.2653 178.46 12.4627 178.46 11.548C178.46 10.442 178.54 9.50633 178.698 8.741C178.857 7.97567 179.076 7.35967 179.356 6.893C179.641 6.42167 179.97 6.081 180.343 5.871C180.721 5.65633 181.127 5.549 181.561 5.549C182.075 5.549 182.495 5.64 182.821 5.822C183.153 5.99933 183.409 6.22567 183.591 6.501C183.773 6.77633 183.899 7.061 183.969 7.355C184.044 7.649 184.081 7.91033 184.081 8.139C184.081 8.14367 184.081 8.14833 184.081 8.153C184.081 8.153 184.081 8.15767 184.081 8.167H182.961C182.961 8.15767 182.961 8.153 182.961 8.153C182.961 8.14833 182.961 8.14367 182.961 8.139C182.961 7.971 182.94 7.79833 182.898 7.621C182.861 7.439 182.791 7.271 182.688 7.117C182.586 6.963 182.443 6.83933 182.261 6.746C182.079 6.65267 181.844 6.606 181.554 6.606C181.181 6.606 180.845 6.76233 180.546 7.075C180.252 7.383 180.019 7.91267 179.846 8.664C179.678 9.41533 179.594 10.456 179.594 11.786H179.02C179.02 11.2913 179.142 10.862 179.384 10.498C179.632 10.1293 179.958 9.84467 180.364 9.644C180.77 9.43867 181.209 9.336 181.68 9.336C182.268 9.336 182.77 9.48067 183.185 9.77C183.601 10.0547 183.916 10.449 184.13 10.953C184.35 11.4523 184.459 12.0263 184.459 12.675C184.459 13.3517 184.345 13.9513 184.116 14.474C183.888 14.9967 183.549 15.405 183.101 15.699C182.658 15.993 182.11 16.14 181.456 16.14ZM181.463 15.09C181.86 15.09 182.189 14.9967 182.45 14.81C182.716 14.6233 182.917 14.355 183.052 14.005C183.188 13.655 183.255 13.2373 183.255 12.752C183.255 12.2947 183.19 11.8887 183.059 11.534C182.933 11.1747 182.744 10.8947 182.492 10.694C182.245 10.4887 181.939 10.386 181.575 10.386C181.207 10.386 180.875 10.4747 180.581 10.652C180.292 10.8293 180.063 11.079 179.895 11.401C179.732 11.723 179.65 12.1033 179.65 12.542C179.65 13.0087 179.723 13.4357 179.867 13.823C180.017 14.2103 180.227 14.5183 180.497 14.747C180.773 14.9757 181.095 15.09 181.463 15.09Z" fill="white" fill-opacity="0.64"/>
<path d="M312.195 16V13.676H308.051V12.717L311.733 5.64H313.364V12.626H314.757V13.676H313.364V16H312.195ZM309.087 13.27L308.695 12.626H312.195V6.466L312.496 6.536L309.087 13.27Z" fill="white" fill-opacity="0.64"/>
<path d="M457.223 10.561C457.634 10.575 457.963 10.6917 458.21 10.911C458.462 11.1303 458.644 11.4197 458.756 11.779C458.868 12.1337 458.924 12.5257 458.924 12.955C458.924 13.557 458.817 14.0983 458.602 14.579C458.392 15.0597 458.068 15.44 457.629 15.72C457.195 16 456.642 16.14 455.97 16.14C455.415 16.14 454.943 16.0653 454.556 15.916C454.169 15.7667 453.854 15.5497 453.611 15.265C453.373 14.9803 453.198 14.635 453.086 14.229C452.974 13.823 452.918 13.3657 452.918 12.857C452.918 12.8523 452.918 12.8477 452.918 12.843C452.918 12.8383 452.918 12.8337 452.918 12.829H454.115C454.115 12.8337 454.115 12.8383 454.115 12.843C454.115 12.8477 454.115 12.8523 454.115 12.857C454.115 13.4403 454.19 13.8953 454.339 14.222C454.488 14.544 454.701 14.7703 454.976 14.901C455.256 15.027 455.592 15.09 455.984 15.09C456.521 15.09 456.943 14.9127 457.251 14.558C457.564 14.2033 457.72 13.6597 457.72 12.927C457.72 12.6843 457.694 12.4533 457.643 12.234C457.596 12.01 457.508 11.814 457.377 11.646C457.251 11.4733 457.071 11.338 456.838 11.24C456.605 11.1373 456.304 11.086 455.935 11.086H455.55V10.113H455.935C456.294 10.113 456.588 10.064 456.817 9.966C457.05 9.86333 457.232 9.73033 457.363 9.567C457.494 9.399 457.585 9.21233 457.636 9.007C457.692 8.797 457.72 8.58467 457.72 8.37C457.72 7.74933 457.566 7.30133 457.258 7.026C456.95 6.75067 456.532 6.613 456.005 6.613C455.431 6.613 454.971 6.76467 454.626 7.068C454.285 7.37133 454.115 7.91733 454.115 8.706H452.918C452.918 8.23933 452.979 7.81233 453.1 7.425C453.226 7.03767 453.415 6.704 453.667 6.424C453.919 6.144 454.236 5.92933 454.619 5.78C455.006 5.626 455.461 5.549 455.984 5.549C456.651 5.549 457.202 5.67033 457.636 5.913C458.07 6.15567 458.392 6.487 458.602 6.907C458.817 7.32233 458.924 7.79133 458.924 8.314C458.924 8.69667 458.868 9.056 458.756 9.392C458.644 9.728 458.462 10.0033 458.21 10.218C457.963 10.428 457.634 10.5423 457.223 10.561Z" fill="white" fill-opacity="0.64"/>
<path d="M571.654 5.64V16H570.464V6.935C570.427 6.98633 570.31 7.054 570.114 7.138C569.923 7.222 569.685 7.30367 569.4 7.383C569.12 7.45767 568.822 7.51133 568.504 7.544V6.466C568.817 6.41467 569.111 6.34233 569.386 6.249C569.666 6.15567 569.904 6.05533 570.1 5.948C570.296 5.836 570.427 5.73333 570.492 5.64H571.654Z" fill="white" fill-opacity="0.64"/>
<path d="M4.696 28.16C3.88 28.16 3.18133 28.032 2.6 27.776C2.024 27.5147 1.58133 27.1227 1.272 26.6C0.962667 26.0773 0.808 25.4267 0.808 24.648C0.808 24.5413 0.808 24.4507 0.808 24.376C0.808 24.3013 0.808 24.2107 0.808 24.104H2.176C2.176 24.2053 2.176 24.2907 2.176 24.36C2.176 24.4293 2.176 24.5173 2.176 24.624C2.176 25.44 2.38933 26.0293 2.816 26.392C3.24267 26.7493 3.864 26.928 4.68 26.928C5.52267 26.928 6.16 26.784 6.592 26.496C7.024 26.208 7.24 25.7413 7.24 25.096C7.24 24.6427 7.11467 24.2667 6.864 23.968C6.61867 23.664 6.27733 23.408 5.84 23.2C5.40267 22.9867 4.89333 22.792 4.312 22.616C3.656 22.4133 3.06933 22.1573 2.552 21.848C2.04 21.5387 1.63467 21.1573 1.336 20.704C1.04267 20.2453 0.896 19.688 0.896 19.032C0.896 18.392 1.05067 17.8507 1.36 17.408C1.67467 16.9653 2.112 16.6293 2.672 16.4C3.232 16.1707 3.88267 16.056 4.624 16.056C5.408 16.056 6.088 16.1787 6.664 16.424C7.24533 16.664 7.69333 17.032 8.008 17.528C8.328 18.0187 8.488 18.6373 8.488 19.384C8.488 19.5013 8.488 19.6027 8.488 19.688C8.488 19.768 8.488 19.8667 8.488 19.984H7.12C7.12 19.8827 7.12 19.792 7.12 19.712C7.12 19.632 7.12 19.5413 7.12 19.44C7.12 18.6613 6.90933 18.1093 6.488 17.784C6.06667 17.4533 5.45333 17.288 4.648 17.288C3.87467 17.288 3.27733 17.424 2.856 17.696C2.43467 17.968 2.224 18.4133 2.224 19.032C2.224 19.496 2.352 19.88 2.608 20.184C2.86933 20.4827 3.224 20.7387 3.672 20.952C4.12 21.16 4.632 21.36 5.208 21.552C5.90667 21.7813 6.50667 22.0427 7.008 22.336C7.51467 22.624 7.90133 22.984 8.168 23.416C8.44 23.848 8.576 24.392 8.576 25.048C8.576 25.704 8.41867 26.264 8.104 26.728C7.79467 27.192 7.34933 27.5467 6.768 27.792C6.192 28.0373 5.50133 28.16 4.696 28.16ZM16.7026 28V24.84C16.7026 24.6907 16.7026 24.5147 16.7026 24.312C16.7026 24.104 16.7026 23.896 16.7026 23.688C16.7026 23.4747 16.7026 23.2933 16.7026 23.144C16.7026 22.328 16.5266 21.712 16.1746 21.296C15.828 20.88 15.276 20.672 14.5186 20.672C14.012 20.672 13.5666 20.7707 13.1826 20.968C12.804 21.1653 12.508 21.4347 12.2946 21.776C12.0813 22.1173 11.9746 22.504 11.9746 22.936L11.1106 22.672C11.1106 22.064 11.268 21.512 11.5826 21.016C11.9026 20.5147 12.3373 20.1173 12.8866 19.824C13.4413 19.5253 14.068 19.376 14.7666 19.376C15.7853 19.376 16.588 19.6827 17.1746 20.296C17.7666 20.9093 18.0626 21.7573 18.0626 22.84C18.0626 23.1227 18.0626 23.448 18.0626 23.816C18.0626 24.184 18.0626 24.5707 18.0626 24.976V28H16.7026ZM10.6146 28V15.496H11.9746V28H10.6146ZM24.4511 28.152C23.5978 28.152 22.8431 27.9627 22.1871 27.584C21.5365 27.2 21.0245 26.6773 20.6511 26.016C20.2831 25.3493 20.0991 24.592 20.0991 23.744C20.0991 22.896 20.2831 22.144 20.6511 21.488C21.0245 20.832 21.5365 20.3173 22.1871 19.944C22.8431 19.5707 23.5978 19.384 24.4511 19.384C25.3045 19.384 26.0565 19.5707 26.7071 19.944C27.3631 20.3173 27.8751 20.832 28.2431 21.488C28.6165 22.144 28.8031 22.896 28.8031 23.744C28.8031 24.592 28.6165 25.3493 28.2431 26.016C27.8751 26.6773 27.3631 27.2 26.7071 27.584C26.0565 27.9627 25.3045 28.152 24.4511 28.152ZM24.4511 26.904C25.0378 26.904 25.5551 26.7733 26.0031 26.512C26.4511 26.2507 26.8005 25.8827 27.0511 25.408C27.3071 24.9333 27.4351 24.3787 27.4351 23.744C27.4351 23.1093 27.3071 22.56 27.0511 22.096C26.8005 21.6267 26.4511 21.2667 26.0031 21.016C25.5551 20.76 25.0378 20.632 24.4511 20.632C23.8698 20.632 23.3525 20.76 22.8991 21.016C22.4511 21.2667 22.0991 21.6267 21.8431 22.096C21.5925 22.56 21.4671 23.1093 21.4671 23.744C21.4671 24.3787 21.5925 24.9333 21.8431 25.408C22.0991 25.8827 22.4511 26.2507 22.8991 26.512C23.3525 26.7733 23.8698 26.904 24.4511 26.904ZM37.5328 28L35.1568 19.504H36.3648L38.6128 27.4H38.3648L39.8528 19.504H41.2688L39.4368 28H37.5328ZM31.7888 28L29.9408 19.504H31.3568L32.8608 27.4H32.6128L34.8368 19.504H36.0448L33.7008 28H31.7888ZM46.374 28L49.622 16.168H51.75L54.974 28H53.566L50.678 17.056H50.694L47.782 28H46.374ZM48.054 24.872V23.672H53.318V24.872H48.054ZM58.2818 15.496V28H56.9378V15.496H58.2818ZM62.2349 15.496V28H60.8909V15.496H62.2349Z" fill="white"/>
<path d="M125.128 28V16.2H128.088C128.867 16.2 129.568 16.336 130.192 16.608C130.821 16.88 131.357 17.272 131.8 17.784C132.248 18.2907 132.592 18.9093 132.832 19.64C133.072 20.3653 133.192 21.184 133.192 22.096C133.192 23.008 133.072 23.8293 132.832 24.56C132.592 25.2853 132.248 25.904 131.8 26.416C131.357 26.928 130.821 27.32 130.192 27.592C129.568 27.864 128.867 28 128.088 28H125.128ZM126.504 27.576L125.888 26.8H127.928C128.685 26.8 129.355 26.6107 129.936 26.232C130.523 25.848 130.981 25.304 131.312 24.6C131.643 23.896 131.808 23.0613 131.808 22.096C131.808 21.1253 131.643 20.2907 131.312 19.592C130.981 18.888 130.523 18.3467 129.936 17.968C129.355 17.5893 128.685 17.4 127.928 17.4H125.888L126.504 16.624V27.576ZM135.664 24.296V23.08H142.232L141.992 23.48C141.992 23.448 141.992 23.4187 141.992 23.392C141.992 23.36 141.992 23.3307 141.992 23.304C141.992 22.8133 141.888 22.3653 141.68 21.96C141.477 21.5493 141.173 21.2213 140.768 20.976C140.363 20.7307 139.861 20.608 139.264 20.608C138.661 20.608 138.131 20.736 137.672 20.992C137.213 21.248 136.856 21.6107 136.6 22.08C136.344 22.544 136.216 23.0987 136.216 23.744C136.216 24.4 136.339 24.9653 136.584 25.44C136.835 25.9147 137.189 26.28 137.648 26.536C138.107 26.792 138.651 26.92 139.28 26.92C139.728 26.92 140.117 26.8747 140.448 26.784C140.779 26.688 141.051 26.5627 141.264 26.408C141.483 26.248 141.648 26.0747 141.76 25.888C141.872 25.7013 141.939 25.5147 141.96 25.328H143.32C143.293 25.6693 143.187 26.008 143 26.344C142.813 26.68 142.549 26.9867 142.208 27.264C141.867 27.536 141.448 27.7547 140.952 27.92C140.456 28.0853 139.885 28.168 139.24 28.168C138.387 28.168 137.635 27.9813 136.984 27.608C136.333 27.2347 135.821 26.7173 135.448 26.056C135.08 25.3947 134.896 24.6347 134.896 23.776C134.896 22.9067 135.083 22.144 135.456 21.488C135.829 20.8267 136.344 20.3093 137 19.936C137.656 19.5627 138.405 19.376 139.248 19.376C140.107 19.376 140.851 19.5627 141.48 19.936C142.109 20.3093 142.595 20.8213 142.936 21.472C143.277 22.1173 143.448 22.8533 143.448 23.68C143.448 23.7653 143.445 23.8773 143.44 24.016C143.435 24.1547 143.427 24.248 143.416 24.296H135.664ZM148.816 28.16C148.304 28.16 147.829 28.1067 147.392 28C146.96 27.888 146.581 27.728 146.256 27.52C145.936 27.3067 145.685 27.0453 145.504 26.736C145.328 26.4267 145.24 26.072 145.24 25.672C145.24 25.6293 145.24 25.5867 145.24 25.544C145.24 25.496 145.24 25.456 145.24 25.424H146.608C146.608 25.456 146.608 25.4827 146.608 25.504C146.608 25.5253 146.608 25.5573 146.608 25.6C146.608 26.032 146.808 26.3627 147.208 26.592C147.608 26.816 148.154 26.928 148.848 26.928C149.274 26.928 149.656 26.8853 149.992 26.8C150.328 26.7147 150.592 26.584 150.784 26.408C150.981 26.232 151.08 26.0107 151.08 25.744C151.08 25.3013 150.872 24.9867 150.456 24.8C150.045 24.608 149.429 24.4427 148.608 24.304C148.176 24.2293 147.765 24.1333 147.376 24.016C146.986 23.8933 146.64 23.736 146.336 23.544C146.037 23.352 145.8 23.1147 145.624 22.832C145.453 22.544 145.368 22.2 145.368 21.8C145.368 21.2827 145.52 20.8453 145.824 20.488C146.133 20.1253 146.549 19.8507 147.072 19.664C147.594 19.472 148.176 19.376 148.816 19.376C149.434 19.376 150.005 19.4747 150.528 19.672C151.05 19.8693 151.469 20.1573 151.784 20.536C152.104 20.9093 152.264 21.3707 152.264 21.92C152.264 21.9413 152.264 21.968 152.264 22C152.264 22.0267 152.264 22.0533 152.264 22.08H150.904C150.904 22.0533 150.904 22.032 150.904 22.016C150.904 22 150.904 21.9813 150.904 21.96C150.904 21.6507 150.805 21.3973 150.608 21.2C150.41 20.9973 150.154 20.848 149.84 20.752C149.525 20.6507 149.189 20.6 148.832 20.6C148.496 20.6 148.165 20.6373 147.84 20.712C147.514 20.7813 147.245 20.8987 147.032 21.064C146.818 21.2293 146.712 21.456 146.712 21.744C146.712 22.032 146.81 22.264 147.008 22.44C147.21 22.6107 147.493 22.752 147.856 22.864C148.224 22.9707 148.656 23.0693 149.152 23.16C149.594 23.24 150.013 23.3413 150.408 23.464C150.802 23.5813 151.149 23.7333 151.448 23.92C151.752 24.1067 151.989 24.344 152.16 24.632C152.336 24.9147 152.424 25.2613 152.424 25.672C152.424 26.088 152.328 26.4507 152.136 26.76C151.949 27.0693 151.688 27.328 151.352 27.536C151.021 27.744 150.637 27.8987 150.2 28C149.768 28.1067 149.306 28.16 148.816 28.16ZM154.617 28V19.504H155.961V28H154.617ZM155.297 17.552C155.046 17.552 154.827 17.4827 154.641 17.344C154.459 17.2 154.368 17.0053 154.368 16.76C154.368 16.52 154.459 16.3307 154.641 16.192C154.827 16.048 155.046 15.976 155.297 15.976C155.547 15.976 155.763 16.048 155.945 16.192C156.126 16.3307 156.217 16.52 156.217 16.76C156.217 17.0053 156.126 17.2 155.945 17.344C155.763 17.4827 155.547 17.552 155.297 17.552ZM163.914 27.48C164.372 27.5173 164.775 27.6027 165.122 27.736C165.474 27.864 165.748 28.0533 165.946 28.304C166.143 28.56 166.242 28.8933 166.242 29.304C166.242 29.7573 166.087 30.1573 165.778 30.504C165.468 30.856 164.999 31.1307 164.37 31.328C163.74 31.5253 162.948 31.624 161.994 31.624C160.644 31.624 159.626 31.4267 158.938 31.032C158.25 30.6427 157.906 30.1093 157.906 29.432C157.906 29.2187 157.93 29.0293 157.978 28.864C158.031 28.704 158.09 28.5733 158.154 28.472L159.45 28.664C159.407 28.7227 159.364 28.8107 159.322 28.928C159.284 29.0507 159.266 29.192 159.266 29.352C159.266 29.7787 159.508 30.0773 159.994 30.248C160.479 30.424 161.167 30.512 162.058 30.512C162.724 30.512 163.271 30.4667 163.698 30.376C164.124 30.2853 164.442 30.1547 164.65 29.984C164.858 29.8133 164.962 29.6133 164.962 29.384C164.962 29.0373 164.815 28.8213 164.522 28.736C164.234 28.656 163.876 28.6 163.45 28.568L160.218 28.328C159.679 28.2853 159.239 28.12 158.898 27.832C158.562 27.5387 158.394 27.184 158.394 26.768C158.394 26.512 158.455 26.2693 158.578 26.04C158.706 25.8107 158.852 25.6187 159.018 25.464C159.188 25.304 159.34 25.208 159.474 25.176L160.546 25.664C160.412 25.6853 160.247 25.7787 160.05 25.944C159.858 26.104 159.762 26.2933 159.762 26.512C159.762 26.7093 159.839 26.872 159.994 27C160.148 27.1227 160.455 27.2027 160.914 27.24L163.914 27.48ZM165.09 19.504H166.37L165.842 22.848C165.746 23.472 165.546 24.0373 165.242 24.544C164.938 25.0453 164.522 25.4453 163.994 25.744C163.471 26.0373 162.823 26.184 162.05 26.184C161.244 26.184 160.556 26.0373 159.986 25.744C159.415 25.4507 158.978 25.0507 158.674 24.544C158.37 24.032 158.218 23.456 158.218 22.816C158.218 22.1653 158.375 21.5813 158.69 21.064C159.01 20.5413 159.452 20.1307 160.018 19.832C160.583 19.528 161.231 19.376 161.962 19.376C162.618 19.376 163.191 19.4907 163.682 19.72C164.172 19.944 164.559 20.2267 164.842 20.568C165.13 20.9093 165.29 21.2533 165.322 21.6L164.81 21.632L165.09 19.504ZM162.042 24.968C162.559 24.968 163.002 24.8827 163.37 24.712C163.743 24.5413 164.028 24.2933 164.226 23.968C164.428 23.6427 164.53 23.248 164.53 22.784C164.53 22.336 164.428 21.9493 164.226 21.624C164.028 21.2933 163.743 21.04 163.37 20.864C163.002 20.6827 162.562 20.592 162.05 20.592C161.559 20.592 161.124 20.6853 160.746 20.872C160.372 21.0533 160.079 21.3093 159.866 21.64C159.658 21.9707 159.554 22.36 159.554 22.808C159.554 23.2613 159.652 23.6507 159.85 23.976C160.052 24.296 160.338 24.5413 160.706 24.712C161.079 24.8827 161.524 24.968 162.042 24.968ZM174.32 28V23.928C174.32 23.6827 174.32 23.4827 174.32 23.328C174.32 23.168 174.32 23.016 174.32 22.872C174.32 22.4293 174.245 22.0427 174.096 21.712C173.946 21.3813 173.712 21.1253 173.392 20.944C173.072 20.7627 172.653 20.672 172.136 20.672C171.682 20.672 171.261 20.7893 170.872 21.024C170.488 21.2533 170.178 21.5653 169.944 21.96C169.714 22.3493 169.6 22.7867 169.6 23.272L168.824 22.976C168.824 22.3093 168.986 21.704 169.312 21.16C169.642 20.616 170.08 20.184 170.624 19.864C171.173 19.5387 171.77 19.376 172.416 19.376C173.072 19.376 173.645 19.5013 174.136 19.752C174.626 20.0027 175.005 20.3627 175.272 20.832C175.544 21.296 175.68 21.856 175.68 22.512C175.68 22.7467 175.68 23.0027 175.68 23.28C175.68 23.5573 175.68 23.816 175.68 24.056V28H174.32ZM168.24 28V19.504H169.6V28H168.24Z" fill="white" fill-opacity="0.64"/>
<path d="M242.048 16.2C242.779 16.2 243.397 16.3013 243.904 16.504C244.416 16.7013 244.805 17.008 245.072 17.424C245.344 17.84 245.48 18.368 245.48 19.008C245.48 19.616 245.355 20.1253 245.104 20.536C244.859 20.9413 244.541 21.2507 244.152 21.464C243.768 21.672 243.368 21.7867 242.952 21.808C243.405 21.8187 243.845 21.9227 244.272 22.12C244.699 22.312 245.048 22.6213 245.32 23.048C245.597 23.4693 245.736 24.032 245.736 24.736C245.736 25.424 245.597 26.0133 245.32 26.504C245.048 26.9893 244.635 27.36 244.08 27.616C243.525 27.872 242.827 28 241.984 28H238.128V16.2H242.048ZM239.448 21.72L238.984 21.256H241.408C242.261 21.256 242.925 21.0853 243.4 20.744C243.875 20.3973 244.112 19.888 244.112 19.216C244.112 18.768 244.013 18.4133 243.816 18.152C243.619 17.8853 243.339 17.6933 242.976 17.576C242.619 17.4587 242.2 17.4 241.72 17.4H238.832L239.448 16.624V21.72ZM241.72 26.8C242.531 26.8 243.171 26.6213 243.64 26.264C244.109 25.9067 244.344 25.3733 244.344 24.664C244.344 24.232 244.267 23.8747 244.112 23.592C243.957 23.304 243.747 23.0773 243.48 22.912C243.213 22.7467 242.907 22.6293 242.56 22.56C242.219 22.4853 241.859 22.448 241.48 22.448H238.984L239.448 21.984V27.576L238.832 26.8H241.72ZM247.943 28V19.504H249.303V22.112L248.855 21.952C248.887 21.6373 248.967 21.328 249.095 21.024C249.223 20.7147 249.399 20.4373 249.623 20.192C249.852 19.9413 250.137 19.744 250.479 19.6C250.82 19.4507 251.22 19.376 251.679 19.376C252.02 19.376 252.297 19.4053 252.511 19.464C252.729 19.5173 252.865 19.56 252.919 19.592L252.567 20.928C252.513 20.8907 252.404 20.8427 252.239 20.784C252.079 20.7253 251.849 20.696 251.551 20.696C251.108 20.696 250.74 20.776 250.447 20.936C250.159 21.096 249.929 21.3093 249.759 21.576C249.593 21.8373 249.476 22.1227 249.407 22.432C249.337 22.7413 249.303 23.048 249.303 23.352V28H247.943ZM257.192 28.16C256.547 28.16 255.981 28.0587 255.496 27.856C255.016 27.6533 254.643 27.3627 254.376 26.984C254.109 26.6 253.976 26.1413 253.976 25.608C253.976 25.0533 254.12 24.592 254.408 24.224C254.696 23.8507 255.101 23.56 255.624 23.352C256.147 23.144 256.755 23.0053 257.448 22.936C258.493 22.8293 259.237 22.7253 259.68 22.624C260.123 22.5173 260.344 22.3467 260.344 22.112C260.344 22.1067 260.344 22.104 260.344 22.104C260.344 22.0987 260.344 22.0933 260.344 22.088C260.344 21.5973 260.144 21.232 259.744 20.992C259.344 20.7467 258.765 20.624 258.008 20.624C257.219 20.624 256.605 20.7627 256.168 21.04C255.731 21.312 255.512 21.7547 255.512 22.368H254.168C254.168 21.7333 254.331 21.1947 254.656 20.752C254.981 20.304 255.432 19.9627 256.008 19.728C256.589 19.4933 257.259 19.376 258.016 19.376C258.709 19.376 259.333 19.4827 259.888 19.696C260.448 19.904 260.891 20.216 261.216 20.632C261.547 21.0427 261.712 21.552 261.712 22.16C261.712 22.272 261.712 22.384 261.712 22.496C261.712 22.6027 261.712 22.712 261.712 22.824V26.4C261.712 26.5867 261.72 26.768 261.736 26.944C261.752 27.12 261.779 27.2747 261.816 27.408C261.864 27.568 261.917 27.6987 261.976 27.8C262.035 27.896 262.083 27.9627 262.12 28H260.752C260.725 27.9733 260.685 27.912 260.632 27.816C260.579 27.7147 260.528 27.5973 260.48 27.464C260.443 27.3573 260.413 27.224 260.392 27.064C260.371 26.8987 260.36 26.728 260.36 26.552L260.584 26.704C260.419 26.992 260.176 27.2453 259.856 27.464C259.541 27.6827 259.16 27.8533 258.712 27.976C258.264 28.0987 257.757 28.16 257.192 28.16ZM257.408 26.936C257.957 26.936 258.453 26.8533 258.896 26.688C259.339 26.5173 259.691 26.2667 259.952 25.936C260.213 25.6053 260.344 25.1947 260.344 24.704V23.016L260.648 23.528C260.307 23.6613 259.88 23.7707 259.368 23.856C258.861 23.936 258.331 24.0027 257.776 24.056C256.971 24.1307 256.363 24.272 255.952 24.48C255.547 24.688 255.344 25.0373 255.344 25.528C255.344 25.992 255.512 26.344 255.848 26.584C256.184 26.8187 256.704 26.936 257.408 26.936ZM270.054 28V23.928C270.054 23.6827 270.054 23.4827 270.054 23.328C270.054 23.168 270.054 23.016 270.054 22.872C270.054 22.4293 269.979 22.0427 269.83 21.712C269.681 21.3813 269.446 21.1253 269.126 20.944C268.806 20.7627 268.387 20.672 267.87 20.672C267.417 20.672 266.995 20.7893 266.606 21.024C266.222 21.2533 265.913 21.5653 265.678 21.96C265.449 22.3493 265.334 22.7867 265.334 23.272L264.558 22.976C264.558 22.3093 264.721 21.704 265.046 21.16C265.377 20.616 265.814 20.184 266.358 19.864C266.907 19.5387 267.505 19.376 268.15 19.376C268.806 19.376 269.379 19.5013 269.87 19.752C270.361 20.0027 270.739 20.3627 271.006 20.832C271.278 21.296 271.414 21.856 271.414 22.512C271.414 22.7467 271.414 23.0027 271.414 23.28C271.414 23.5573 271.414 23.816 271.414 24.056V28H270.054ZM263.974 28V19.504H265.334V28H263.974ZM277.291 28.16C276.592 28.16 275.952 27.992 275.371 27.656C274.789 27.3147 274.325 26.816 273.979 26.16C273.632 25.4987 273.459 24.6933 273.459 23.744C273.459 22.8107 273.635 22.0187 273.987 21.368C274.339 20.7173 274.805 20.224 275.387 19.888C275.968 19.5467 276.603 19.376 277.291 19.376C277.947 19.376 278.56 19.5333 279.131 19.848C279.707 20.1573 280.171 20.5893 280.523 21.144C280.875 21.6987 281.051 22.3413 281.051 23.072C281.051 23.088 281.051 23.104 281.051 23.12C281.051 23.136 281.051 23.152 281.051 23.168L280.075 23.208C280.075 23.192 280.075 23.176 280.075 23.16C280.075 23.1387 280.075 23.12 280.075 23.104C280.075 22.64 279.952 22.2213 279.707 21.848C279.467 21.4747 279.149 21.1787 278.755 20.96C278.36 20.736 277.936 20.624 277.483 20.624C276.725 20.624 276.099 20.88 275.603 21.392C275.107 21.8987 274.859 22.6827 274.859 23.744C274.859 24.8 275.107 25.5867 275.603 26.104C276.104 26.616 276.731 26.872 277.483 26.872C277.957 26.872 278.389 26.7573 278.779 26.528C279.173 26.2987 279.488 25.992 279.723 25.608C279.957 25.2187 280.075 24.784 280.075 24.304L281.051 24.328C281.051 25.0533 280.883 25.7067 280.547 26.288C280.211 26.864 279.757 27.32 279.187 27.656C278.621 27.992 277.989 28.16 277.291 28.16ZM280.075 28V15.496H281.443V28H280.075ZM283.913 28V19.504H285.257V28H283.913ZM284.593 17.552C284.343 17.552 284.124 17.4827 283.937 17.344C283.756 17.2 283.665 17.0053 283.665 16.76C283.665 16.52 283.756 16.3307 283.937 16.192C284.124 16.048 284.343 15.976 284.593 15.976C284.844 15.976 285.06 16.048 285.241 16.192C285.423 16.3307 285.513 16.52 285.513 16.76C285.513 17.0053 285.423 17.2 285.241 17.344C285.06 17.4827 284.844 17.552 284.593 17.552ZM293.867 28V23.928C293.867 23.6827 293.867 23.4827 293.867 23.328C293.867 23.168 293.867 23.016 293.867 22.872C293.867 22.4293 293.792 22.0427 293.643 21.712C293.493 21.3813 293.259 21.1253 292.939 20.944C292.619 20.7627 292.2 20.672 291.683 20.672C291.229 20.672 290.808 20.7893 290.419 21.024C290.035 21.2533 289.725 21.5653 289.491 21.96C289.261 22.3493 289.147 22.7867 289.147 23.272L288.371 22.976C288.371 22.3093 288.533 21.704 288.859 21.16C289.189 20.616 289.627 20.184 290.171 19.864C290.72 19.5387 291.317 19.376 291.963 19.376C292.619 19.376 293.192 19.5013 293.683 19.752C294.173 20.0027 294.552 20.3627 294.819 20.832C295.091 21.296 295.227 21.856 295.227 22.512C295.227 22.7467 295.227 23.0027 295.227 23.28C295.227 23.5573 295.227 23.816 295.227 24.056V28H293.867ZM287.787 28V19.504H289.147V28H287.787ZM303.023 27.48C303.482 27.5173 303.884 27.6027 304.231 27.736C304.583 27.864 304.858 28.0533 305.055 28.304C305.252 28.56 305.351 28.8933 305.351 29.304C305.351 29.7573 305.196 30.1573 304.887 30.504C304.578 30.856 304.108 31.1307 303.479 31.328C302.85 31.5253 302.058 31.624 301.103 31.624C299.754 31.624 298.735 31.4267 298.047 31.032C297.359 30.6427 297.015 30.1093 297.015 29.432C297.015 29.2187 297.039 29.0293 297.087 28.864C297.14 28.704 297.199 28.5733 297.263 28.472L298.559 28.664C298.516 28.7227 298.474 28.8107 298.431 28.928C298.394 29.0507 298.375 29.192 298.375 29.352C298.375 29.7787 298.618 30.0773 299.103 30.248C299.588 30.424 300.276 30.512 301.167 30.512C301.834 30.512 302.38 30.4667 302.807 30.376C303.234 30.2853 303.551 30.1547 303.759 29.984C303.967 29.8133 304.071 29.6133 304.071 29.384C304.071 29.0373 303.924 28.8213 303.631 28.736C303.343 28.656 302.986 28.6 302.559 28.568L299.327 28.328C298.788 28.2853 298.348 28.12 298.007 27.832C297.671 27.5387 297.503 27.184 297.503 26.768C297.503 26.512 297.564 26.2693 297.687 26.04C297.815 25.8107 297.962 25.6187 298.127 25.464C298.298 25.304 298.45 25.208 298.583 25.176L299.655 25.664C299.522 25.6853 299.356 25.7787 299.159 25.944C298.967 26.104 298.871 26.2933 298.871 26.512C298.871 26.7093 298.948 26.872 299.103 27C299.258 27.1227 299.564 27.2027 300.023 27.24L303.023 27.48ZM304.199 19.504H305.479L304.951 22.848C304.855 23.472 304.655 24.0373 304.351 24.544C304.047 25.0453 303.631 25.4453 303.103 25.744C302.58 26.0373 301.932 26.184 301.159 26.184C300.354 26.184 299.666 26.0373 299.095 25.744C298.524 25.4507 298.087 25.0507 297.783 24.544C297.479 24.032 297.327 23.456 297.327 22.816C297.327 22.1653 297.484 21.5813 297.799 21.064C298.119 20.5413 298.562 20.1307 299.127 19.832C299.692 19.528 300.34 19.376 301.071 19.376C301.727 19.376 302.3 19.4907 302.791 19.72C303.282 19.944 303.668 20.2267 303.951 20.568C304.239 20.9093 304.399 21.2533 304.431 21.6L303.919 21.632L304.199 19.504ZM301.151 24.968C301.668 24.968 302.111 24.8827 302.479 24.712C302.852 24.5413 303.138 24.2933 303.335 23.968C303.538 23.6427 303.639 23.248 303.639 22.784C303.639 22.336 303.538 21.9493 303.335 21.624C303.138 21.2933 302.852 21.04 302.479 20.864C302.111 20.6827 301.671 20.592 301.159 20.592C300.668 20.592 300.234 20.6853 299.855 20.872C299.482 21.0533 299.188 21.3093 298.975 21.64C298.767 21.9707 298.663 22.36 298.663 22.808C298.663 23.2613 298.762 23.6507 298.959 23.976C299.162 24.296 299.447 24.5413 299.815 24.712C300.188 24.8827 300.634 24.968 301.151 24.968Z" fill="white" fill-opacity="0.64"/>
<path d="M368.184 28V16.2H369.528V28H368.184ZM373.407 15.496V28H372.063V15.496H373.407ZM377.36 15.496V28H376.016V15.496H377.36ZM382.985 28.152C382.377 28.152 381.87 28.048 381.465 27.84C381.06 27.6267 380.737 27.352 380.497 27.016C380.262 26.68 380.094 26.3173 379.993 25.928C379.897 25.5333 379.849 25.1547 379.849 24.792C379.849 24.5893 379.849 24.3813 379.849 24.168C379.849 23.9493 379.849 23.7307 379.849 23.512V19.504H381.217V23.336C381.217 23.5333 381.217 23.728 381.217 23.92C381.217 24.112 381.217 24.2933 381.217 24.464C381.217 24.896 381.276 25.296 381.393 25.664C381.516 26.032 381.726 26.3307 382.025 26.56C382.324 26.784 382.734 26.896 383.257 26.896C383.748 26.896 384.177 26.7493 384.545 26.456C384.913 26.1573 385.201 25.7867 385.409 25.344C385.617 24.896 385.721 24.4507 385.721 24.008L386.513 24.336C386.513 24.8053 386.43 25.2667 386.265 25.72C386.1 26.168 385.862 26.576 385.553 26.944C385.249 27.312 384.878 27.6053 384.441 27.824C384.009 28.0427 383.524 28.152 382.985 28.152ZM385.721 28V19.504H387.081V28H385.721ZM392.691 28.16C392.179 28.16 391.704 28.1067 391.267 28C390.835 27.888 390.456 27.728 390.131 27.52C389.811 27.3067 389.56 27.0453 389.379 26.736C389.203 26.4267 389.115 26.072 389.115 25.672C389.115 25.6293 389.115 25.5867 389.115 25.544C389.115 25.496 389.115 25.456 389.115 25.424H390.483C390.483 25.456 390.483 25.4827 390.483 25.504C390.483 25.5253 390.483 25.5573 390.483 25.6C390.483 26.032 390.683 26.3627 391.083 26.592C391.483 26.816 392.029 26.928 392.723 26.928C393.149 26.928 393.531 26.8853 393.867 26.8C394.203 26.7147 394.467 26.584 394.659 26.408C394.856 26.232 394.955 26.0107 394.955 25.744C394.955 25.3013 394.747 24.9867 394.331 24.8C393.92 24.608 393.304 24.4427 392.483 24.304C392.051 24.2293 391.64 24.1333 391.251 24.016C390.861 23.8933 390.515 23.736 390.211 23.544C389.912 23.352 389.675 23.1147 389.499 22.832C389.328 22.544 389.243 22.2 389.243 21.8C389.243 21.2827 389.395 20.8453 389.699 20.488C390.008 20.1253 390.424 19.8507 390.947 19.664C391.469 19.472 392.051 19.376 392.691 19.376C393.309 19.376 393.88 19.4747 394.403 19.672C394.925 19.8693 395.344 20.1573 395.659 20.536C395.979 20.9093 396.139 21.3707 396.139 21.92C396.139 21.9413 396.139 21.968 396.139 22C396.139 22.0267 396.139 22.0533 396.139 22.08H394.779C394.779 22.0533 394.779 22.032 394.779 22.016C394.779 22 394.779 21.9813 394.779 21.96C394.779 21.6507 394.68 21.3973 394.483 21.2C394.285 20.9973 394.029 20.848 393.715 20.752C393.4 20.6507 393.064 20.6 392.707 20.6C392.371 20.6 392.04 20.6373 391.715 20.712C391.389 20.7813 391.12 20.8987 390.907 21.064C390.693 21.2293 390.587 21.456 390.587 21.744C390.587 22.032 390.685 22.264 390.883 22.44C391.085 22.6107 391.368 22.752 391.731 22.864C392.099 22.9707 392.531 23.0693 393.027 23.16C393.469 23.24 393.888 23.3413 394.283 23.464C394.677 23.5813 395.024 23.7333 395.323 23.92C395.627 24.1067 395.864 24.344 396.035 24.632C396.211 24.9147 396.299 25.2613 396.299 25.672C396.299 26.088 396.203 26.4507 396.011 26.76C395.824 27.0693 395.563 27.328 395.227 27.536C394.896 27.744 394.512 27.8987 394.075 28C393.643 28.1067 393.181 28.16 392.691 28.16ZM401.6 28.128C401.338 28.128 401.082 28.0987 400.832 28.04C400.581 27.9813 400.354 27.8773 400.152 27.728C399.954 27.5733 399.797 27.3573 399.68 27.08C399.562 26.7973 399.504 26.4347 399.504 25.992C399.504 25.88 399.504 25.7653 399.504 25.648C399.504 25.5253 399.504 25.3973 399.504 25.264V20.704H397.432V19.504H398.76C398.941 19.504 399.082 19.4987 399.184 19.488C399.285 19.472 399.357 19.4373 399.4 19.384C399.448 19.3253 399.477 19.2373 399.488 19.12C399.498 18.9973 399.504 18.8293 399.504 18.616V16.688H400.872V19.504H403.528V20.704H400.872V24.824C400.872 24.9413 400.872 25.056 400.872 25.168C400.872 25.28 400.872 25.384 400.872 25.48C400.872 25.9333 400.925 26.288 401.032 26.544C401.144 26.8 401.392 26.928 401.776 26.928C401.93 26.928 402.077 26.9147 402.216 26.888C402.354 26.8613 402.458 26.8347 402.528 26.808V27.992C402.437 28.024 402.309 28.0533 402.144 28.08C401.984 28.112 401.802 28.128 401.6 28.128ZM405.271 28V19.504H406.631V22.112L406.183 21.952C406.215 21.6373 406.295 21.328 406.423 21.024C406.551 20.7147 406.727 20.4373 406.951 20.192C407.18 19.9413 407.466 19.744 407.807 19.6C408.148 19.4507 408.548 19.376 409.007 19.376C409.348 19.376 409.626 19.4053 409.839 19.464C410.058 19.5173 410.194 19.56 410.247 19.592L409.895 20.928C409.842 20.8907 409.732 20.8427 409.567 20.784C409.407 20.7253 409.178 20.696 408.879 20.696C408.436 20.696 408.068 20.776 407.775 20.936C407.487 21.096 407.258 21.3093 407.087 21.576C406.922 21.8373 406.804 22.1227 406.735 22.432C406.666 22.7413 406.631 23.048 406.631 23.352V28H405.271ZM414.52 28.16C413.875 28.16 413.309 28.0587 412.824 27.856C412.344 27.6533 411.971 27.3627 411.704 26.984C411.437 26.6 411.304 26.1413 411.304 25.608C411.304 25.0533 411.448 24.592 411.736 24.224C412.024 23.8507 412.429 23.56 412.952 23.352C413.475 23.144 414.083 23.0053 414.776 22.936C415.821 22.8293 416.565 22.7253 417.008 22.624C417.451 22.5173 417.672 22.3467 417.672 22.112C417.672 22.1067 417.672 22.104 417.672 22.104C417.672 22.0987 417.672 22.0933 417.672 22.088C417.672 21.5973 417.472 21.232 417.072 20.992C416.672 20.7467 416.093 20.624 415.336 20.624C414.547 20.624 413.933 20.7627 413.496 21.04C413.059 21.312 412.84 21.7547 412.84 22.368H411.496C411.496 21.7333 411.659 21.1947 411.984 20.752C412.309 20.304 412.76 19.9627 413.336 19.728C413.917 19.4933 414.587 19.376 415.344 19.376C416.037 19.376 416.661 19.4827 417.216 19.696C417.776 19.904 418.219 20.216 418.544 20.632C418.875 21.0427 419.04 21.552 419.04 22.16C419.04 22.272 419.04 22.384 419.04 22.496C419.04 22.6027 419.04 22.712 419.04 22.824V26.4C419.04 26.5867 419.048 26.768 419.064 26.944C419.08 27.12 419.107 27.2747 419.144 27.408C419.192 27.568 419.245 27.6987 419.304 27.8C419.363 27.896 419.411 27.9627 419.448 28H418.08C418.053 27.9733 418.013 27.912 417.96 27.816C417.907 27.7147 417.856 27.5973 417.808 27.464C417.771 27.3573 417.741 27.224 417.72 27.064C417.699 26.8987 417.688 26.728 417.688 26.552L417.912 26.704C417.747 26.992 417.504 27.2453 417.184 27.464C416.869 27.6827 416.488 27.8533 416.04 27.976C415.592 28.0987 415.085 28.16 414.52 28.16ZM414.736 26.936C415.285 26.936 415.781 26.8533 416.224 26.688C416.667 26.5173 417.019 26.2667 417.28 25.936C417.541 25.6053 417.672 25.1947 417.672 24.704V23.016L417.976 23.528C417.635 23.6613 417.208 23.7707 416.696 23.856C416.189 23.936 415.659 24.0027 415.104 24.056C414.299 24.1307 413.691 24.272 413.28 24.48C412.875 24.688 412.672 25.0373 412.672 25.528C412.672 25.992 412.84 26.344 413.176 26.584C413.512 26.8187 414.032 26.936 414.736 26.936ZM424.428 28.128C424.166 28.128 423.91 28.0987 423.66 28.04C423.409 27.9813 423.182 27.8773 422.98 27.728C422.782 27.5733 422.625 27.3573 422.508 27.08C422.39 26.7973 422.332 26.4347 422.332 25.992C422.332 25.88 422.332 25.7653 422.332 25.648C422.332 25.5253 422.332 25.3973 422.332 25.264V20.704H420.26V19.504H421.588C421.769 19.504 421.91 19.4987 422.012 19.488C422.113 19.472 422.185 19.4373 422.228 19.384C422.276 19.3253 422.305 19.2373 422.316 19.12C422.326 18.9973 422.332 18.8293 422.332 18.616V16.688H423.7V19.504H426.356V20.704H423.7V24.824C423.7 24.9413 423.7 25.056 423.7 25.168C423.7 25.28 423.7 25.384 423.7 25.48C423.7 25.9333 423.753 26.288 423.86 26.544C423.972 26.8 424.22 26.928 424.604 26.928C424.758 26.928 424.905 26.9147 425.044 26.888C425.182 26.8613 425.286 26.8347 425.356 26.808V27.992C425.265 28.024 425.137 28.0533 424.972 28.08C424.812 28.112 424.63 28.128 424.428 28.128ZM428.179 28V19.504H429.523V28H428.179ZM428.859 17.552C428.608 17.552 428.39 17.4827 428.203 17.344C428.022 17.2 427.931 17.0053 427.931 16.76C427.931 16.52 428.022 16.3307 428.203 16.192C428.39 16.048 428.608 15.976 428.859 15.976C429.11 15.976 429.326 16.048 429.507 16.192C429.688 16.3307 429.779 16.52 429.779 16.76C429.779 17.0053 429.688 17.2 429.507 17.344C429.326 17.4827 429.11 17.552 428.859 17.552ZM436.076 28.152C435.223 28.152 434.468 27.9627 433.812 27.584C433.161 27.2 432.649 26.6773 432.276 26.016C431.908 25.3493 431.724 24.592 431.724 23.744C431.724 22.896 431.908 22.144 432.276 21.488C432.649 20.832 433.161 20.3173 433.812 19.944C434.468 19.5707 435.223 19.384 436.076 19.384C436.929 19.384 437.681 19.5707 438.332 19.944C438.988 20.3173 439.5 20.832 439.868 21.488C440.241 22.144 440.428 22.896 440.428 23.744C440.428 24.592 440.241 25.3493 439.868 26.016C439.5 26.6773 438.988 27.2 438.332 27.584C437.681 27.9627 436.929 28.152 436.076 28.152ZM436.076 26.904C436.663 26.904 437.18 26.7733 437.628 26.512C438.076 26.2507 438.425 25.8827 438.676 25.408C438.932 24.9333 439.06 24.3787 439.06 23.744C439.06 23.1093 438.932 22.56 438.676 22.096C438.425 21.6267 438.076 21.2667 437.628 21.016C437.18 20.76 436.663 20.632 436.076 20.632C435.495 20.632 434.977 20.76 434.524 21.016C434.076 21.2667 433.724 21.6267 433.468 22.096C433.217 22.56 433.092 23.1093 433.092 23.744C433.092 24.3787 433.217 24.9333 433.468 25.408C433.724 25.8827 434.076 26.2507 434.524 26.512C434.977 26.7733 435.495 26.904 436.076 26.904ZM448.632 28V23.928C448.632 23.6827 448.632 23.4827 448.632 23.328C448.632 23.168 448.632 23.016 448.632 22.872C448.632 22.4293 448.557 22.0427 448.408 21.712C448.259 21.3813 448.024 21.1253 447.704 20.944C447.384 20.7627 446.965 20.672 446.448 20.672C445.995 20.672 445.573 20.7893 445.184 21.024C444.8 21.2533 444.491 21.5653 444.256 21.96C444.027 22.3493 443.912 22.7867 443.912 23.272L443.136 22.976C443.136 22.3093 443.299 21.704 443.624 21.16C443.955 20.616 444.392 20.184 444.936 19.864C445.485 19.5387 446.083 19.376 446.728 19.376C447.384 19.376 447.957 19.5013 448.448 19.752C448.939 20.0027 449.317 20.3627 449.584 20.832C449.856 21.296 449.992 21.856 449.992 22.512C449.992 22.7467 449.992 23.0027 449.992 23.28C449.992 23.5573 449.992 23.816 449.992 24.056V28H448.632ZM442.552 28V19.504H443.912V28H442.552Z" fill="white" fill-opacity="0.64"/>
<path d="M521.408 16.2H523.76V28H522.464V17.288L522.504 17.304L519.496 28H517.544L514.52 17.296L514.56 17.28V28H513.264V16.2H515.616L518.512 26.904H518.496L521.408 16.2ZM530.279 28.152C529.426 28.152 528.671 27.9627 528.015 27.584C527.365 27.2 526.853 26.6773 526.479 26.016C526.111 25.3493 525.927 24.592 525.927 23.744C525.927 22.896 526.111 22.144 526.479 21.488C526.853 20.832 527.365 20.3173 528.015 19.944C528.671 19.5707 529.426 19.384 530.279 19.384C531.133 19.384 531.885 19.5707 532.535 19.944C533.191 20.3173 533.703 20.832 534.071 21.488C534.445 22.144 534.631 22.896 534.631 23.744C534.631 24.592 534.445 25.3493 534.071 26.016C533.703 26.6773 533.191 27.2 532.535 27.584C531.885 27.9627 531.133 28.152 530.279 28.152ZM530.279 26.904C530.866 26.904 531.383 26.7733 531.831 26.512C532.279 26.2507 532.629 25.8827 532.879 25.408C533.135 24.9333 533.263 24.3787 533.263 23.744C533.263 23.1093 533.135 22.56 532.879 22.096C532.629 21.6267 532.279 21.2667 531.831 21.016C531.383 20.76 530.866 20.632 530.279 20.632C529.698 20.632 529.181 20.76 528.727 21.016C528.279 21.2667 527.927 21.6267 527.671 22.096C527.421 22.56 527.295 23.1093 527.295 23.744C527.295 24.3787 527.421 24.9333 527.671 25.408C527.927 25.8827 528.279 26.2507 528.727 26.512C529.181 26.7733 529.698 26.904 530.279 26.904ZM539.943 28.128C539.682 28.128 539.426 28.0987 539.175 28.04C538.925 27.9813 538.698 27.8773 538.495 27.728C538.298 27.5733 538.141 27.3573 538.023 27.08C537.906 26.7973 537.847 26.4347 537.847 25.992C537.847 25.88 537.847 25.7653 537.847 25.648C537.847 25.5253 537.847 25.3973 537.847 25.264V20.704H535.775V19.504H537.103C537.285 19.504 537.426 19.4987 537.527 19.488C537.629 19.472 537.701 19.4373 537.743 19.384C537.791 19.3253 537.821 19.2373 537.831 19.12C537.842 18.9973 537.847 18.8293 537.847 18.616V16.688H539.215V19.504H541.871V20.704H539.215V24.824C539.215 24.9413 539.215 25.056 539.215 25.168C539.215 25.28 539.215 25.384 539.215 25.48C539.215 25.9333 539.269 26.288 539.375 26.544C539.487 26.8 539.735 26.928 540.119 26.928C540.274 26.928 540.421 26.9147 540.559 26.888C540.698 26.8613 540.802 26.8347 540.871 26.808V27.992C540.781 28.024 540.653 28.0533 540.487 28.08C540.327 28.112 540.146 28.128 539.943 28.128ZM543.695 28V19.504H545.039V28H543.695ZM544.375 17.552C544.124 17.552 543.905 17.4827 543.719 17.344C543.537 17.2 543.447 17.0053 543.447 16.76C543.447 16.52 543.537 16.3307 543.719 16.192C543.905 16.048 544.124 15.976 544.375 15.976C544.625 15.976 544.841 16.048 545.023 16.192C545.204 16.3307 545.295 16.52 545.295 16.76C545.295 17.0053 545.204 17.2 545.023 17.344C544.841 17.4827 544.625 17.552 544.375 17.552ZM551.592 28.152C550.738 28.152 549.984 27.9627 549.328 27.584C548.677 27.2 548.165 26.6773 547.792 26.016C547.424 25.3493 547.24 24.592 547.24 23.744C547.24 22.896 547.424 22.144 547.792 21.488C548.165 20.832 548.677 20.3173 549.328 19.944C549.984 19.5707 550.738 19.384 551.592 19.384C552.445 19.384 553.197 19.5707 553.848 19.944C554.504 20.3173 555.016 20.832 555.384 21.488C555.757 22.144 555.944 22.896 555.944 23.744C555.944 24.592 555.757 25.3493 555.384 26.016C555.016 26.6773 554.504 27.2 553.848 27.584C553.197 27.9627 552.445 28.152 551.592 28.152ZM551.592 26.904C552.178 26.904 552.696 26.7733 553.144 26.512C553.592 26.2507 553.941 25.8827 554.192 25.408C554.448 24.9333 554.576 24.3787 554.576 23.744C554.576 23.1093 554.448 22.56 554.192 22.096C553.941 21.6267 553.592 21.2667 553.144 21.016C552.696 20.76 552.178 20.632 551.592 20.632C551.01 20.632 550.493 20.76 550.04 21.016C549.592 21.2667 549.24 21.6267 548.984 22.096C548.733 22.56 548.608 23.1093 548.608 23.744C548.608 24.3787 548.733 24.9333 548.984 25.408C549.24 25.8827 549.592 26.2507 550.04 26.512C550.493 26.7733 551.01 26.904 551.592 26.904ZM564.148 28V23.928C564.148 23.6827 564.148 23.4827 564.148 23.328C564.148 23.168 564.148 23.016 564.148 22.872C564.148 22.4293 564.073 22.0427 563.924 21.712C563.774 21.3813 563.54 21.1253 563.22 20.944C562.9 20.7627 562.481 20.672 561.964 20.672C561.51 20.672 561.089 20.7893 560.7 21.024C560.316 21.2533 560.006 21.5653 559.772 21.96C559.542 22.3493 559.428 22.7867 559.428 23.272L558.652 22.976C558.652 22.3093 558.814 21.704 559.14 21.16C559.47 20.616 559.908 20.184 560.452 19.864C561.001 19.5387 561.598 19.376 562.244 19.376C562.9 19.376 563.473 19.5013 563.964 19.752C564.454 20.0027 564.833 20.3627 565.1 20.832C565.372 21.296 565.508 21.856 565.508 22.512C565.508 22.7467 565.508 23.0027 565.508 23.28C565.508 23.5573 565.508 23.816 565.508 24.056V28H564.148ZM558.068 28V19.504H559.428V28H558.068Z" fill="white" fill-opacity="0.64"/>
</svg>
